<?xml version="1.0" encoding="UTF-8" standalone="no"?>
<!-- Created with Inkscape (http://www.inkscape.org/) -->

<svg
   version="1.0"
   width="3000"
   height="720.91302"
   viewBox="-62.436768 -27.993164 2999.9814 720.91303"
   id="svg2495"
   xml:space="preserve"
   sodipodi:docname="piece.svg"
   inkscape:version="1.2 (dc2aeda, 2022-05-15)"
   xmlns:inkscape="http://www.inkscape.org/namespaces/inkscape"
   xmlns:sodipodi="http://sodipodi.sourceforge.net/DTD/sodipodi-0.dtd"
   xmlns="http://www.w3.org/2000/svg"
   xmlns:svg="http://www.w3.org/2000/svg"><sodipodi:namedview
   id="namedview52"
   pagecolor="#ffffff"
   bordercolor="#000000"
   borderopacity="0.25"
   inkscape:showpageshadow="2"
   inkscape:pageopacity="0.0"
   inkscape:pagecheckerboard="0"
   inkscape:deskcolor="#d1d1d1"
   showgrid="false"
   inkscape:zoom="0.1688337"
   inkscape:cx="1554.7844"
   inkscape:cy="426.45514"
   inkscape:window-width="1152"
   inkscape:window-height="456"
   inkscape:window-x="0"
   inkscape:window-y="25"
   inkscape:window-maximized="0"
   inkscape:current-layer="svg2495" /><defs
   id="defs2511" />
   <g
   transform="matrix(2.1841719,0,0,2.1841719,633.07912,-317.91651)"
   id="Ebene_1">
			<g
   id="g2500">
				<path
   d="m 219.07949,290.53811 c 0.375,17.62304 6.37451,30.74609 24.37207,29.99658 17.99804,-0.75 15.74804,-3.74951 18.74756,-5.24951 2.99951,-1.5 13.49853,-8.62403 25.12207,-8.99903 44.61035,-1.43896 39.7749,53.61817 2.24951,53.61817 -4.49951,0 -18.74756,-4.49903 -25.87158,-11.62354 -7.12403,-7.12402 -45.74414,-4.87402 -41.61963,24.37207 1.58252,11.22217 9.31738,31.5586 10.07959,49.88623 0.44726,10.75928 -1.66992,20.77149 -3.25684,29.40284 38.52442,-10.1792 46.14551,-11.33252 82.41602,-2.79834 6.37402,1.49951 32.6206,-2.625 17.24756,-22.49756 -15.37305,-19.87256 -14.99805,-41.99463 -4.12452,-49.49366 10.87354,-7.49902 29.62159,-11.99853 40.87012,-6.74902 11.24854,5.24902 26.62158,21.74707 17.24756,37.49512 -9.37354,15.74805 -22.49707,19.12256 -18.74756,32.24609 3.74951,13.12354 23.24707,16.49805 44.24463,17.99756 8.9585,0.64014 27.229,1.44678 41.36572,-1.7085 7.80957,-1.74267 14.81348,-4.23437 20.35889,-6.56543 -1.05957,-35.75732 -1.61865,-67.84667 -2.10693,-71.59082 -1.50782,-11.55859 -17.86524,-24.6875 -34.49561,-18.74804 -5.24951,1.875 -5.99951,8.62402 -20.62256,9.37402 -60.31445,3.09326 -43.17285,-89.33203 20.62256,-52.11816 13.6626,7.96972 49.3291,10.27734 44.24414,-23.62207 -2.24951,-14.99854 -16.12305,-53.99366 -16.12305,-53.99366 0,0 -76.74853,8.95704 -101.9873,-10.87353 -10.49854,-8.24878 -7.12402,-22.49707 -2.62451,-30.74609 4.49951,-8.24903 15.74804,-14.62305 15.37304,-25.12183 -1.72168,-48.21021 -71.78027,-47.02661 -68.24121,0.74976 0.74952,10.12377 10.12354,15.74804 14.24805,23.62207 9.25342,17.66577 -5.25391,35.57788 -26.24658,38.99511 -7.14551,1.16309 -35.33252,3.1626 -64.11328,2.74414 -0.71729,-0.0103 -1.43506,-0.0234 -2.15235,-0.0371 -3.15771,18.77735 -6.68506,42.19922 -6.47558,52.03614 z"
   style="fill:#d2a8ff;stroke:#000000"
   id="path2502" />

			</g>
		</g>
	</svg>
